<svg width="29" height="29" viewBox="0 0 29 29" fill="none" xmlns="http://www.w3.org/2000/svg">
<rect x="0.937012" y="0.5" width="28" height="28" rx="5" fill="#D9D9D9" fill-opacity="0.5"/>
<path d="M20.937 15.5H15.937V20.5C15.937 20.7652 15.8317 21.0196 15.6441 21.2071C15.4566 21.3946 15.2022 21.5 14.937 21.5C14.6718 21.5 14.4174 21.3946 14.2299 21.2071C14.0424 21.0196 13.937 20.7652 13.937 20.5V15.5H8.93701C8.6718 15.5 8.41744 15.3946 8.22991 15.2071C8.04237 15.0196 7.93701 14.7652 7.93701 14.5C7.93701 14.2348 8.04237 13.9804 8.22991 13.7929C8.41744 13.6054 8.6718 13.5 8.93701 13.5H13.937V8.5C13.937 8.23478 14.0424 7.98043 14.2299 7.79289C14.4174 7.60536 14.6718 7.5 14.937 7.5C15.2022 7.5 15.4566 7.60536 15.6441 7.79289C15.8317 7.98043 15.937 8.23478 15.937 8.5V13.5H20.937C21.2022 13.5 21.4566 13.6054 21.6441 13.7929C21.8317 13.9804 21.937 14.2348 21.937 14.5C21.937 14.7652 21.8317 15.0196 21.6441 15.2071C21.4566 15.3946 21.2022 15.5 20.937 15.5Z" fill="white"/>
</svg>
