<svg width="24" height="25" viewBox="0 0 24 25" fill="none" xmlns="http://www.w3.org/2000/svg">
<rect y="0.5" width="24" height="24" rx="5" fill="white" fill-opacity="0.63"/>
<path d="M16.4695 12.7449H13.1021V16.1122C13.1021 16.2908 13.0312 16.4621 12.9049 16.5884C12.7786 16.7147 12.6073 16.7857 12.4286 16.7857C12.25 16.7857 12.0787 16.7147 11.9524 16.5884C11.8261 16.4621 11.7552 16.2908 11.7552 16.1122V12.7449H8.38782C8.20921 12.7449 8.03791 12.6739 7.91161 12.5476C7.78531 12.4213 7.71436 12.25 7.71436 12.0714C7.71436 11.8928 7.78531 11.7215 7.91161 11.5952C8.03791 11.4689 8.20921 11.3979 8.38782 11.3979H11.7552V8.03059C11.7552 7.85197 11.8261 7.68067 11.9524 7.55437C12.0787 7.42807 12.25 7.35712 12.4286 7.35712C12.6073 7.35712 12.7786 7.42807 12.9049 7.55437C13.0312 7.68067 13.1021 7.85197 13.1021 8.03059V11.3979H16.4695C16.6481 11.3979 16.8194 11.4689 16.9457 11.5952C17.072 11.7215 17.1429 11.8928 17.1429 12.0714C17.1429 12.25 17.072 12.4213 16.9457 12.5476C16.8194 12.6739 16.6481 12.7449 16.4695 12.7449Z" fill="#F31D1D"/>
</svg>
